<?xml version="1.0" standalone="no"?>
<!DOCTYPE svg PUBLIC "-//W3C//DTD SVG 20010904//EN"
 "http://www.w3.org/TR/2001/REC-SVG-20010904/DTD/svg10.dtd">
<svg version="1.0" xmlns="http://www.w3.org/2000/svg"
 width="512.000000pt" height="512.000000pt" viewBox="0 0 512.000000 512.000000"
 preserveAspectRatio="xMidYMid meet">

<g transform="translate(0.000000,512.000000) scale(0.100000,-0.100000)"
fill="#000000" stroke="none">
<path d="M4730 5114 c-14 -3 -1032 -340 -2263 -750 -2418 -806 -2310 -767
-2387 -864 -56 -71 -75 -126 -75 -221 0 -78 3 -91 38 -161 68 -139 25 -112
1044 -636 l921 -473 474 -921 c525 -1022 497 -977 637 -1046 69 -34 82 -37
160 -37 95 0 150 19 221 75 97 77 58 -31 867 2392 l748 2243 0 90 c-1 70 -6
101 -22 136 -49 110 -142 170 -268 175 -38 1 -81 0 -95 -2z m-1425 -1594
c-665 -666 -1214 -1210 -1218 -1210 -5 0 -311 156 -680 346 -370 191 -760 391
-867 446 -107 55 -203 109 -213 120 -30 36 -32 67 -5 94 18 19 500 183 2103
718 1144 382 2082 695 2085 695 3 1 -540 -543 -1205 -1209z m729 -1092 c-535
-1607 -699 -2088 -718 -2106 -27 -27 -58 -25 -94 5 -18 17 -912 1740 -912
1759 0 7 2410 2424 2417 2424 1 0 -311 -937 -693 -2082z"/>
</g>
</svg>
